<mxfile host="Electron" agent="Mozilla/5.0 (Windows NT 10.0; Win64; x64) AppleWebKit/537.36 (KHTML, like Gecko) draw.io/25.0.2 Chrome/128.0.6613.186 Electron/32.2.5 Safari/537.36" version="25.0.2">
  <diagram name="Updated" id="taKo81K4qv3iZlRPrnIa">
    <mxGraphModel dx="1560" dy="1310" grid="1" gridSize="10" guides="1" tooltips="1" connect="1" arrows="1" fold="1" page="1" pageScale="1" pageWidth="1169" pageHeight="827" background="#D5E8D4" math="0" shadow="1">
      <root>
        <mxCell id="wY9a074QrQh7qfgXFha0-0" />
        <mxCell id="wY9a074QrQh7qfgXFha0-1" parent="wY9a074QrQh7qfgXFha0-0" />
        <mxCell id="wY9a074QrQh7qfgXFha0-2" style="edgeStyle=orthogonalEdgeStyle;shape=connector;curved=1;rounded=1;orthogonalLoop=1;jettySize=auto;html=1;strokeColor=#E07A5F;align=center;verticalAlign=middle;fontFamily=Helvetica;fontSize=11;fontColor=default;labelBackgroundColor=none;startSize=24;endArrow=none;endFill=0;endSize=24;" parent="wY9a074QrQh7qfgXFha0-1" edge="1">
          <mxGeometry relative="1" as="geometry">
            <mxPoint x="-620" y="-464" as="sourcePoint" />
          </mxGeometry>
        </mxCell>
        <mxCell id="wY9a074QrQh7qfgXFha0-3" style="edgeStyle=orthogonalEdgeStyle;rounded=1;orthogonalLoop=1;jettySize=auto;html=1;endArrow=none;endFill=0;endSize=24;startSize=24;curved=1;fontFamily=Courier New;fontStyle=0;fontSize=11;labelBackgroundColor=none;strokeColor=#E07A5F;fontColor=default;" parent="wY9a074QrQh7qfgXFha0-1" edge="1">
          <mxGeometry relative="1" as="geometry">
            <mxPoint x="-620" y="-464" as="targetPoint" />
          </mxGeometry>
        </mxCell>
        <mxCell id="wY9a074QrQh7qfgXFha0-4" style="edgeStyle=orthogonalEdgeStyle;shape=connector;curved=1;rounded=1;orthogonalLoop=1;jettySize=auto;html=1;strokeColor=#E07A5F;align=center;verticalAlign=middle;fontFamily=Courier New;fontSize=11;fontColor=default;labelBackgroundColor=none;startSize=24;endArrow=none;endFill=0;endSize=24;fontStyle=0" parent="wY9a074QrQh7qfgXFha0-1" edge="1">
          <mxGeometry relative="1" as="geometry">
            <mxPoint x="350.0000000000009" y="-0.9999999999997726" as="targetPoint" />
          </mxGeometry>
        </mxCell>
        <mxCell id="wY9a074QrQh7qfgXFha0-5" value="1...*" style="edgeLabel;html=1;align=center;verticalAlign=middle;resizable=0;points=[];fontFamily=Courier New;fontSize=11;fontColor=#393C56;labelBackgroundColor=none;fontStyle=0;rounded=1;" parent="wY9a074QrQh7qfgXFha0-4" vertex="1" connectable="0">
          <mxGeometry x="-0.8734" relative="1" as="geometry">
            <mxPoint as="offset" />
          </mxGeometry>
        </mxCell>
        <mxCell id="wY9a074QrQh7qfgXFha0-6" value="assigned" style="edgeLabel;html=1;align=center;verticalAlign=middle;resizable=0;points=[];fontFamily=Courier New;fontSize=11;fontColor=#393C56;labelBackgroundColor=none;fontStyle=0;rounded=1;" parent="wY9a074QrQh7qfgXFha0-4" vertex="1" connectable="0">
          <mxGeometry x="0.2263" y="-15" relative="1" as="geometry">
            <mxPoint x="18" y="23" as="offset" />
          </mxGeometry>
        </mxCell>
        <mxCell id="wY9a074QrQh7qfgXFha0-7" value="1" style="edgeLabel;html=1;align=center;verticalAlign=middle;resizable=0;points=[];fontFamily=Courier New;fontSize=11;fontColor=#393C56;labelBackgroundColor=none;fontStyle=0;rounded=1;" parent="wY9a074QrQh7qfgXFha0-4" vertex="1" connectable="0">
          <mxGeometry x="0.8749" y="-1" relative="1" as="geometry">
            <mxPoint as="offset" />
          </mxGeometry>
        </mxCell>
        <mxCell id="wY9a074QrQh7qfgXFha0-8" style="edgeStyle=orthogonalEdgeStyle;shape=connector;curved=1;rounded=1;orthogonalLoop=1;jettySize=auto;html=1;strokeColor=#E07A5F;align=center;verticalAlign=middle;fontFamily=Courier New;fontSize=11;fontColor=default;labelBackgroundColor=none;startSize=24;endArrow=none;endFill=0;endSize=24;fontStyle=0" parent="wY9a074QrQh7qfgXFha0-1" edge="1">
          <mxGeometry relative="1" as="geometry">
            <mxPoint x="30" y="-279" as="sourcePoint" />
          </mxGeometry>
        </mxCell>
        <mxCell id="wY9a074QrQh7qfgXFha0-9" value="1" style="edgeLabel;html=1;align=center;verticalAlign=middle;resizable=0;points=[];fontFamily=Courier New;fontSize=11;fontColor=#393C56;labelBackgroundColor=none;fontStyle=0;rounded=1;" parent="wY9a074QrQh7qfgXFha0-8" vertex="1" connectable="0">
          <mxGeometry x="-0.6667" y="-2" relative="1" as="geometry">
            <mxPoint as="offset" />
          </mxGeometry>
        </mxCell>
        <mxCell id="wY9a074QrQh7qfgXFha0-10" value="is" style="edgeLabel;html=1;align=center;verticalAlign=middle;resizable=0;points=[];fontFamily=Courier New;fontSize=11;fontColor=#393C56;labelBackgroundColor=none;fontStyle=0;rounded=1;" parent="wY9a074QrQh7qfgXFha0-8" vertex="1" connectable="0">
          <mxGeometry x="-0.0603" relative="1" as="geometry">
            <mxPoint x="-2" as="offset" />
          </mxGeometry>
        </mxCell>
        <mxCell id="wY9a074QrQh7qfgXFha0-11" value="1...*" style="edgeLabel;html=1;align=center;verticalAlign=middle;resizable=0;points=[];fontFamily=Courier New;fontSize=11;fontColor=#393C56;labelBackgroundColor=none;fontStyle=0;rounded=1;" parent="wY9a074QrQh7qfgXFha0-8" vertex="1" connectable="0">
          <mxGeometry x="0.7905" y="-1" relative="1" as="geometry">
            <mxPoint x="-11" as="offset" />
          </mxGeometry>
        </mxCell>
        <mxCell id="wY9a074QrQh7qfgXFha0-12" style="edgeStyle=orthogonalEdgeStyle;shape=connector;curved=1;rounded=1;orthogonalLoop=1;jettySize=auto;html=1;strokeColor=#E07A5F;align=center;verticalAlign=middle;fontFamily=Courier New;fontSize=11;fontColor=default;labelBackgroundColor=none;startSize=24;endArrow=none;endFill=0;endSize=24;fontStyle=0" parent="wY9a074QrQh7qfgXFha0-1" edge="1">
          <mxGeometry relative="1" as="geometry">
            <mxPoint x="-220" y="127" as="targetPoint" />
          </mxGeometry>
        </mxCell>
        <mxCell id="wY9a074QrQh7qfgXFha0-13" value="1...*" style="edgeLabel;html=1;align=center;verticalAlign=middle;resizable=0;points=[];fontFamily=Courier New;fontSize=11;fontColor=#393C56;labelBackgroundColor=none;fontStyle=0;rounded=1;" parent="wY9a074QrQh7qfgXFha0-12" vertex="1" connectable="0">
          <mxGeometry x="-0.7645" y="1" relative="1" as="geometry">
            <mxPoint as="offset" />
          </mxGeometry>
        </mxCell>
        <mxCell id="wY9a074QrQh7qfgXFha0-14" value="0...*" style="edgeLabel;html=1;align=center;verticalAlign=middle;resizable=0;points=[];fontFamily=Courier New;fontSize=11;fontColor=#393C56;labelBackgroundColor=none;fontStyle=0;rounded=1;" parent="wY9a074QrQh7qfgXFha0-12" vertex="1" connectable="0">
          <mxGeometry x="0.8751" relative="1" as="geometry">
            <mxPoint x="11" as="offset" />
          </mxGeometry>
        </mxCell>
        <mxCell id="wY9a074QrQh7qfgXFha0-15" value="offered in" style="edgeLabel;html=1;align=center;verticalAlign=middle;resizable=0;points=[];fontFamily=Courier New;fontSize=11;fontColor=#393C56;labelBackgroundColor=none;fontStyle=0;rounded=1;" parent="wY9a074QrQh7qfgXFha0-12" vertex="1" connectable="0">
          <mxGeometry x="0.3295" y="16" relative="1" as="geometry">
            <mxPoint x="20" y="-17" as="offset" />
          </mxGeometry>
        </mxCell>
        <mxCell id="wY9a074QrQh7qfgXFha0-16" style="edgeStyle=orthogonalEdgeStyle;shape=connector;curved=1;rounded=1;orthogonalLoop=1;jettySize=auto;html=1;strokeColor=#E07A5F;align=center;verticalAlign=middle;fontFamily=Courier New;fontSize=11;fontColor=default;labelBackgroundColor=none;startSize=24;endArrow=none;endFill=0;endSize=24;" parent="wY9a074QrQh7qfgXFha0-1" edge="1">
          <mxGeometry relative="1" as="geometry">
            <mxPoint x="695" y="126.00000000000023" as="sourcePoint" />
          </mxGeometry>
        </mxCell>
        <mxCell id="wY9a074QrQh7qfgXFha0-17" value="1" style="edgeLabel;html=1;align=center;verticalAlign=middle;resizable=0;points=[];spacingLeft=4;spacingRight=4;fontFamily=Courier New;fontSize=11;fontColor=#393C56;labelBackgroundColor=none;fillColor=none;rounded=1;" parent="wY9a074QrQh7qfgXFha0-16" vertex="1" connectable="0">
          <mxGeometry x="-0.9513" y="1" relative="1" as="geometry">
            <mxPoint as="offset" />
          </mxGeometry>
        </mxCell>
        <mxCell id="wY9a074QrQh7qfgXFha0-18" value="1...*" style="edgeLabel;html=1;align=center;verticalAlign=middle;resizable=0;points=[];spacingLeft=4;spacingRight=4;fontFamily=Courier New;fontSize=11;fontColor=#393C56;labelBackgroundColor=none;fillColor=none;rounded=1;" parent="wY9a074QrQh7qfgXFha0-16" vertex="1" connectable="0">
          <mxGeometry x="0.9541" relative="1" as="geometry">
            <mxPoint as="offset" />
          </mxGeometry>
        </mxCell>
        <mxCell id="wY9a074QrQh7qfgXFha0-19" value="belongs to" style="edgeLabel;html=1;align=center;verticalAlign=middle;resizable=0;points=[];spacingLeft=4;spacingRight=4;fontFamily=Courier New;fontSize=11;fontColor=#393C56;labelBackgroundColor=none;fillColor=none;rounded=1;" parent="wY9a074QrQh7qfgXFha0-16" vertex="1" connectable="0">
          <mxGeometry x="0.3383" y="103" relative="1" as="geometry">
            <mxPoint as="offset" />
          </mxGeometry>
        </mxCell>
        <mxCell id="wY9a074QrQh7qfgXFha0-20" style="edgeStyle=orthogonalEdgeStyle;shape=connector;curved=1;rounded=1;orthogonalLoop=1;jettySize=auto;html=1;strokeColor=#E07A5F;align=center;verticalAlign=middle;fontFamily=Courier New;fontSize=11;fontColor=default;labelBackgroundColor=none;startSize=24;endArrow=none;endFill=0;endSize=24;fontStyle=0" parent="wY9a074QrQh7qfgXFha0-1" edge="1">
          <mxGeometry relative="1" as="geometry">
            <mxPoint x="920" y="-188" as="sourcePoint" />
          </mxGeometry>
        </mxCell>
        <mxCell id="wY9a074QrQh7qfgXFha0-21" value="1" style="edgeLabel;html=1;align=center;verticalAlign=middle;resizable=0;points=[];fontFamily=Courier New;fontSize=11;fontColor=#393C56;labelBackgroundColor=none;fontStyle=0;rounded=1;" parent="wY9a074QrQh7qfgXFha0-20" vertex="1" connectable="0">
          <mxGeometry x="0.8118" relative="1" as="geometry">
            <mxPoint as="offset" />
          </mxGeometry>
        </mxCell>
        <mxCell id="wY9a074QrQh7qfgXFha0-22" value="in" style="edgeLabel;html=1;align=center;verticalAlign=middle;resizable=0;points=[];fontFamily=Courier New;fontSize=11;fontColor=#393C56;labelBackgroundColor=none;fontStyle=0;rounded=1;" parent="wY9a074QrQh7qfgXFha0-20" vertex="1" connectable="0">
          <mxGeometry x="-0.0104" relative="1" as="geometry">
            <mxPoint as="offset" />
          </mxGeometry>
        </mxCell>
        <mxCell id="wY9a074QrQh7qfgXFha0-23" value="1...*" style="edgeLabel;html=1;align=center;verticalAlign=middle;resizable=0;points=[];fontFamily=Courier New;fontSize=11;fontColor=#393C56;labelBackgroundColor=none;fontStyle=0;rounded=1;" parent="wY9a074QrQh7qfgXFha0-20" vertex="1" connectable="0">
          <mxGeometry x="-0.8411" relative="1" as="geometry">
            <mxPoint y="-2" as="offset" />
          </mxGeometry>
        </mxCell>
        <mxCell id="QG28d_ijk8-KWKPGMiaz-0" value="" style="swimlane;startSize=0;fontFamily=Courier New;fontSize=12;fontColor=default;fontStyle=0;labelBorderColor=none;labelBackgroundColor=none;swimlaneFillColor=#d0cdf9;fillColor=default;" parent="wY9a074QrQh7qfgXFha0-1" vertex="1">
          <mxGeometry x="180" y="40" width="820" height="760" as="geometry" />
        </mxCell>
        <mxCell id="0lsAQgyxsjDm7zOoc_U8-1" value="&lt;b&gt;Assessment Scheduler Platform&lt;/b&gt;" style="text;html=1;align=center;verticalAlign=middle;whiteSpace=wrap;rounded=0;fontFamily=Courier New;fontSize=12;fontColor=default;fontStyle=0;labelBorderColor=none;labelBackgroundColor=none;" vertex="1" parent="QG28d_ijk8-KWKPGMiaz-0">
          <mxGeometry x="200" y="20" width="240" height="30" as="geometry" />
        </mxCell>
        <mxCell id="0lsAQgyxsjDm7zOoc_U8-0" value="Account&lt;div&gt;Sign up&amp;nbsp;&lt;/div&gt;" style="ellipse;whiteSpace=wrap;html=1;strokeColor=#E07A5F;fillColor=#F2CC8F;textShadow=1;labelBorderColor=none;shadow=1;fontStyle=0" vertex="1" parent="QG28d_ijk8-KWKPGMiaz-0">
          <mxGeometry x="70" y="475.25" width="90" height="49.5" as="geometry" />
        </mxCell>
        <mxCell id="0lsAQgyxsjDm7zOoc_U8-141" style="edgeStyle=none;shape=connector;rounded=1;orthogonalLoop=1;jettySize=auto;html=1;dashed=1;strokeColor=#E07A5F;align=center;verticalAlign=middle;fontFamily=Helvetica;fontSize=12;fontColor=default;fontStyle=0;labelBorderColor=none;labelBackgroundColor=none;startSize=24;endArrow=open;endFill=0;endSize=24;" edge="1" parent="QG28d_ijk8-KWKPGMiaz-0" source="0lsAQgyxsjDm7zOoc_U8-10" target="0lsAQgyxsjDm7zOoc_U8-97">
          <mxGeometry relative="1" as="geometry" />
        </mxCell>
        <mxCell id="0lsAQgyxsjDm7zOoc_U8-145" value="&amp;lt;extends&amp;gt;&amp;gt;" style="edgeLabel;html=1;align=center;verticalAlign=middle;resizable=0;points=[];shadow=1;strokeColor=#E07A5F;fontFamily=Helvetica;fontSize=12;fontColor=default;fontStyle=0;labelBorderColor=none;labelBackgroundColor=none;fillColor=#F2CC8F;" vertex="1" connectable="0" parent="0lsAQgyxsjDm7zOoc_U8-141">
          <mxGeometry x="-0.0546" y="-1" relative="1" as="geometry">
            <mxPoint as="offset" />
          </mxGeometry>
        </mxCell>
        <mxCell id="0lsAQgyxsjDm7zOoc_U8-10" value="Schedule New Assessment" style="ellipse;whiteSpace=wrap;html=1;strokeColor=#E07A5F;fillColor=#F2CC8F;textShadow=1;labelBorderColor=none;shadow=1;fontStyle=0" vertex="1" parent="QG28d_ijk8-KWKPGMiaz-0">
          <mxGeometry x="220" y="90" width="90" height="50" as="geometry" />
        </mxCell>
        <mxCell id="0lsAQgyxsjDm7zOoc_U8-11" value="Submit &lt;span style=&quot;background-color: initial;&quot;&gt;Assessment&lt;/span&gt;&lt;div&gt;Res&lt;span style=&quot;background-color: initial;&quot;&gt;cheduling Request&lt;/span&gt;&lt;/div&gt;" style="ellipse;whiteSpace=wrap;html=1;strokeColor=#E07A5F;fillColor=#F2CC8F;textShadow=1;labelBorderColor=none;shadow=1;fontStyle=0" vertex="1" parent="QG28d_ijk8-KWKPGMiaz-0">
          <mxGeometry x="335" y="110" width="140" height="50" as="geometry" />
        </mxCell>
        <mxCell id="0lsAQgyxsjDm7zOoc_U8-78" style="edgeStyle=none;shape=connector;rounded=1;orthogonalLoop=1;jettySize=auto;html=1;dashed=1;strokeColor=#E07A5F;align=center;verticalAlign=middle;fontFamily=Helvetica;fontSize=12;fontColor=default;fontStyle=0;labelBorderColor=none;labelBackgroundColor=none;startSize=24;endArrow=open;endFill=0;endSize=24;" edge="1" parent="QG28d_ijk8-KWKPGMiaz-0" source="0lsAQgyxsjDm7zOoc_U8-21" target="0lsAQgyxsjDm7zOoc_U8-67">
          <mxGeometry relative="1" as="geometry" />
        </mxCell>
        <mxCell id="0lsAQgyxsjDm7zOoc_U8-81" value="&amp;lt;extends&amp;gt;&amp;gt;" style="edgeLabel;html=1;align=center;verticalAlign=middle;resizable=0;points=[];shadow=1;strokeColor=#E07A5F;fontFamily=Helvetica;fontSize=12;fontColor=default;fontStyle=0;labelBorderColor=none;labelBackgroundColor=none;fillColor=#F2CC8F;" vertex="1" connectable="0" parent="0lsAQgyxsjDm7zOoc_U8-78">
          <mxGeometry x="-0.3248" y="1" relative="1" as="geometry">
            <mxPoint as="offset" />
          </mxGeometry>
        </mxCell>
        <mxCell id="0lsAQgyxsjDm7zOoc_U8-21" value="Update Course Listing" style="ellipse;whiteSpace=wrap;html=1;strokeColor=#E07A5F;fillColor=#F2CC8F;textShadow=1;labelBorderColor=none;shadow=1;fontStyle=0" vertex="1" parent="QG28d_ijk8-KWKPGMiaz-0">
          <mxGeometry x="630" y="695" width="90" height="50" as="geometry" />
        </mxCell>
        <mxCell id="0lsAQgyxsjDm7zOoc_U8-77" style="edgeStyle=none;shape=connector;rounded=1;orthogonalLoop=1;jettySize=auto;html=1;dashed=1;strokeColor=#E07A5F;align=center;verticalAlign=middle;fontFamily=Helvetica;fontSize=12;fontColor=default;fontStyle=0;labelBorderColor=none;labelBackgroundColor=none;startSize=24;endArrow=open;endFill=0;endSize=24;" edge="1" parent="QG28d_ijk8-KWKPGMiaz-0" source="0lsAQgyxsjDm7zOoc_U8-20" target="0lsAQgyxsjDm7zOoc_U8-67">
          <mxGeometry relative="1" as="geometry" />
        </mxCell>
        <mxCell id="0lsAQgyxsjDm7zOoc_U8-80" value="&amp;lt;&amp;lt;extends&amp;gt;&amp;gt;" style="edgeLabel;html=1;align=center;verticalAlign=middle;resizable=0;points=[];shadow=1;strokeColor=#E07A5F;fontFamily=Helvetica;fontSize=12;fontColor=default;fontStyle=0;labelBorderColor=none;labelBackgroundColor=none;fillColor=#F2CC8F;" vertex="1" connectable="0" parent="0lsAQgyxsjDm7zOoc_U8-77">
          <mxGeometry x="-0.2192" y="5" relative="1" as="geometry">
            <mxPoint as="offset" />
          </mxGeometry>
        </mxCell>
        <mxCell id="0lsAQgyxsjDm7zOoc_U8-20" value="Create Course Listing" style="ellipse;whiteSpace=wrap;html=1;strokeColor=#E07A5F;fillColor=#F2CC8F;textShadow=1;labelBorderColor=none;shadow=1;fontStyle=0" vertex="1" parent="QG28d_ijk8-KWKPGMiaz-0">
          <mxGeometry x="520" y="695" width="90" height="48" as="geometry" />
        </mxCell>
        <mxCell id="0lsAQgyxsjDm7zOoc_U8-19" value="Create Semester Listing" style="ellipse;whiteSpace=wrap;html=1;strokeColor=#E07A5F;fillColor=#F2CC8F;textShadow=1;labelBorderColor=none;shadow=1;fontStyle=0" vertex="1" parent="QG28d_ijk8-KWKPGMiaz-0">
          <mxGeometry x="610" y="374" width="90" height="48" as="geometry" />
        </mxCell>
        <mxCell id="0lsAQgyxsjDm7zOoc_U8-44" style="edgeStyle=none;shape=connector;rounded=1;orthogonalLoop=1;jettySize=auto;html=1;dashed=1;strokeColor=#E07A5F;align=center;verticalAlign=middle;fontFamily=Helvetica;fontSize=12;fontColor=default;fontStyle=0;labelBorderColor=none;labelBackgroundColor=none;startSize=24;endArrow=open;endFill=0;endSize=24;" edge="1" parent="QG28d_ijk8-KWKPGMiaz-0" source="0lsAQgyxsjDm7zOoc_U8-11" target="0lsAQgyxsjDm7zOoc_U8-97">
          <mxGeometry relative="1" as="geometry" />
        </mxCell>
        <mxCell id="0lsAQgyxsjDm7zOoc_U8-46" value="&lt;span style=&quot;&quot;&gt;&amp;lt;&amp;lt;extends&amp;gt;&amp;gt;&lt;/span&gt;" style="edgeLabel;html=1;align=center;verticalAlign=middle;resizable=0;points=[];shadow=1;strokeColor=#E07A5F;fontFamily=Helvetica;fontSize=12;fontColor=default;fontStyle=0;labelBorderColor=none;labelBackgroundColor=none;fillColor=#F2CC8F;" vertex="1" connectable="0" parent="0lsAQgyxsjDm7zOoc_U8-44">
          <mxGeometry x="-0.1874" y="-4" relative="1" as="geometry">
            <mxPoint as="offset" />
          </mxGeometry>
        </mxCell>
        <mxCell id="0lsAQgyxsjDm7zOoc_U8-15" value="Recieve Assessment Clash Notification" style="ellipse;whiteSpace=wrap;html=1;strokeColor=#E07A5F;fillColor=#F2CC8F;textShadow=1;labelBorderColor=none;shadow=1;fontStyle=0" vertex="1" parent="QG28d_ijk8-KWKPGMiaz-0">
          <mxGeometry x="280" y="330" width="130" height="60" as="geometry" />
        </mxCell>
        <mxCell id="0lsAQgyxsjDm7zOoc_U8-149" style="edgeStyle=none;shape=connector;rounded=1;orthogonalLoop=1;jettySize=auto;html=1;dashed=1;strokeColor=#E07A5F;align=center;verticalAlign=middle;fontFamily=Helvetica;fontSize=12;fontColor=default;fontStyle=0;labelBorderColor=none;labelBackgroundColor=none;startSize=24;endArrow=open;endFill=0;endSize=24;" edge="1" parent="QG28d_ijk8-KWKPGMiaz-0" source="0lsAQgyxsjDm7zOoc_U8-12" target="0lsAQgyxsjDm7zOoc_U8-96">
          <mxGeometry relative="1" as="geometry" />
        </mxCell>
        <mxCell id="0lsAQgyxsjDm7zOoc_U8-150" value="&amp;lt;&amp;lt;extends&amp;gt;&amp;gt;" style="edgeLabel;html=1;align=center;verticalAlign=middle;resizable=0;points=[];shadow=1;strokeColor=#E07A5F;fontFamily=Helvetica;fontSize=12;fontColor=default;fontStyle=0;labelBorderColor=none;labelBackgroundColor=none;fillColor=#F2CC8F;" vertex="1" connectable="0" parent="0lsAQgyxsjDm7zOoc_U8-149">
          <mxGeometry x="-0.1091" y="5" relative="1" as="geometry">
            <mxPoint as="offset" />
          </mxGeometry>
        </mxCell>
        <mxCell id="0lsAQgyxsjDm7zOoc_U8-12" value="View Calendar" style="ellipse;whiteSpace=wrap;html=1;strokeColor=#E07A5F;fillColor=#F2CC8F;textShadow=1;labelBorderColor=none;shadow=1;fontStyle=0" vertex="1" parent="QG28d_ijk8-KWKPGMiaz-0">
          <mxGeometry x="10" y="310" width="90" height="50" as="geometry" />
        </mxCell>
        <mxCell id="0lsAQgyxsjDm7zOoc_U8-39" value="Account Login" style="ellipse;whiteSpace=wrap;html=1;strokeColor=#E07A5F;fillColor=#F2CC8F;textShadow=1;labelBorderColor=none;shadow=1;fontStyle=0" vertex="1" parent="QG28d_ijk8-KWKPGMiaz-0">
          <mxGeometry x="160" y="703" width="90" height="49.5" as="geometry" />
        </mxCell>
        <mxCell id="0lsAQgyxsjDm7zOoc_U8-79" style="edgeStyle=none;shape=connector;rounded=1;orthogonalLoop=1;jettySize=auto;html=1;dashed=1;strokeColor=#E07A5F;align=center;verticalAlign=middle;fontFamily=Helvetica;fontSize=12;fontColor=default;fontStyle=0;labelBorderColor=none;labelBackgroundColor=none;startSize=24;endArrow=open;endFill=0;endSize=24;" edge="1" parent="QG28d_ijk8-KWKPGMiaz-0" source="0lsAQgyxsjDm7zOoc_U8-58" target="0lsAQgyxsjDm7zOoc_U8-67">
          <mxGeometry relative="1" as="geometry" />
        </mxCell>
        <mxCell id="0lsAQgyxsjDm7zOoc_U8-82" value="&amp;lt;&amp;lt;extends&amp;gt;&amp;gt;" style="edgeLabel;html=1;align=center;verticalAlign=middle;resizable=0;points=[];shadow=1;strokeColor=#E07A5F;fontFamily=Helvetica;fontSize=12;fontColor=default;fontStyle=0;labelBorderColor=none;labelBackgroundColor=none;fillColor=#F2CC8F;" vertex="1" connectable="0" parent="0lsAQgyxsjDm7zOoc_U8-79">
          <mxGeometry x="-0.2637" y="-1" relative="1" as="geometry">
            <mxPoint as="offset" />
          </mxGeometry>
        </mxCell>
        <mxCell id="0lsAQgyxsjDm7zOoc_U8-58" value="Delete Course Listing" style="ellipse;whiteSpace=wrap;html=1;strokeColor=#E07A5F;fillColor=#F2CC8F;textShadow=1;labelBorderColor=none;shadow=1;fontStyle=0" vertex="1" parent="QG28d_ijk8-KWKPGMiaz-0">
          <mxGeometry x="715" y="647" width="90" height="48" as="geometry" />
        </mxCell>
        <mxCell id="0lsAQgyxsjDm7zOoc_U8-87" style="edgeStyle=none;shape=connector;rounded=1;orthogonalLoop=1;jettySize=auto;html=1;dashed=1;strokeColor=#E07A5F;align=center;verticalAlign=middle;fontFamily=Helvetica;fontSize=12;fontColor=default;fontStyle=0;labelBorderColor=none;labelBackgroundColor=none;startSize=24;endArrow=open;endFill=0;endSize=24;" edge="1" parent="QG28d_ijk8-KWKPGMiaz-0" source="0lsAQgyxsjDm7zOoc_U8-62" target="0lsAQgyxsjDm7zOoc_U8-84">
          <mxGeometry relative="1" as="geometry" />
        </mxCell>
        <mxCell id="0lsAQgyxsjDm7zOoc_U8-93" value="&amp;lt;&amp;lt;extends&amp;gt;&amp;gt;" style="edgeLabel;html=1;align=center;verticalAlign=middle;resizable=0;points=[];shadow=1;strokeColor=#E07A5F;fontFamily=Helvetica;fontSize=12;fontColor=default;fontStyle=0;labelBorderColor=none;labelBackgroundColor=none;fillColor=#F2CC8F;" vertex="1" connectable="0" parent="0lsAQgyxsjDm7zOoc_U8-87">
          <mxGeometry x="-0.391" y="-1" relative="1" as="geometry">
            <mxPoint as="offset" />
          </mxGeometry>
        </mxCell>
        <mxCell id="0lsAQgyxsjDm7zOoc_U8-62" value="Reject&lt;div&gt;&lt;span style=&quot;background-color: initial;&quot;&gt;Rescheduling Request&lt;/span&gt;&lt;/div&gt;" style="ellipse;whiteSpace=wrap;html=1;strokeColor=#E07A5F;fillColor=#F2CC8F;textShadow=1;labelBorderColor=none;shadow=1;fontStyle=0" vertex="1" parent="QG28d_ijk8-KWKPGMiaz-0">
          <mxGeometry x="295" y="500" width="110" height="50" as="geometry" />
        </mxCell>
        <mxCell id="0lsAQgyxsjDm7zOoc_U8-67" value="Manage Course Listings" style="ellipse;whiteSpace=wrap;html=1;strokeColor=#E07A5F;fillColor=#F2CC8F;textShadow=1;labelBorderColor=none;shadow=1;fontStyle=0" vertex="1" parent="QG28d_ijk8-KWKPGMiaz-0">
          <mxGeometry x="570" y="575" width="100" height="49.5" as="geometry" />
        </mxCell>
        <mxCell id="0lsAQgyxsjDm7zOoc_U8-72" style="edgeStyle=none;shape=connector;rounded=1;orthogonalLoop=1;jettySize=auto;html=1;strokeColor=#E07A5F;align=center;verticalAlign=middle;fontFamily=Helvetica;fontSize=12;fontColor=default;fontStyle=0;labelBorderColor=none;labelBackgroundColor=none;startSize=24;endArrow=open;endFill=0;endSize=24;" edge="1" parent="QG28d_ijk8-KWKPGMiaz-0" source="0lsAQgyxsjDm7zOoc_U8-57" target="0lsAQgyxsjDm7zOoc_U8-67">
          <mxGeometry relative="1" as="geometry" />
        </mxCell>
        <mxCell id="0lsAQgyxsjDm7zOoc_U8-76" value="&amp;lt;&amp;lt;extends&amp;gt;&amp;gt;" style="edgeLabel;html=1;align=center;verticalAlign=middle;resizable=0;points=[];shadow=1;strokeColor=#E07A5F;fontFamily=Helvetica;fontSize=12;fontColor=default;fontStyle=0;labelBorderColor=none;labelBackgroundColor=none;fillColor=#F2CC8F;" vertex="1" connectable="0" parent="0lsAQgyxsjDm7zOoc_U8-72">
          <mxGeometry x="-0.1222" y="2" relative="1" as="geometry">
            <mxPoint as="offset" />
          </mxGeometry>
        </mxCell>
        <mxCell id="0lsAQgyxsjDm7zOoc_U8-57" value="View Course List" style="ellipse;whiteSpace=wrap;html=1;strokeColor=#E07A5F;fillColor=#F2CC8F;textShadow=1;labelBorderColor=none;shadow=1;fontStyle=0" vertex="1" parent="QG28d_ijk8-KWKPGMiaz-0">
          <mxGeometry x="455" y="640" width="90" height="48" as="geometry" />
        </mxCell>
        <mxCell id="0lsAQgyxsjDm7zOoc_U8-84" value="Manage Rescheduling Requests" style="ellipse;whiteSpace=wrap;html=1;strokeColor=#E07A5F;fillColor=#F2CC8F;textShadow=1;labelBorderColor=none;shadow=1;fontStyle=0" vertex="1" parent="QG28d_ijk8-KWKPGMiaz-0">
          <mxGeometry x="555" y="470" width="120" height="60" as="geometry" />
        </mxCell>
        <mxCell id="0lsAQgyxsjDm7zOoc_U8-86" style="edgeStyle=none;shape=connector;rounded=1;orthogonalLoop=1;jettySize=auto;html=1;dashed=1;strokeColor=#E07A5F;align=center;verticalAlign=middle;fontFamily=Helvetica;fontSize=12;fontColor=default;fontStyle=0;labelBorderColor=none;labelBackgroundColor=none;startSize=24;endArrow=open;endFill=0;endSize=24;" edge="1" parent="QG28d_ijk8-KWKPGMiaz-0" source="0lsAQgyxsjDm7zOoc_U8-61" target="0lsAQgyxsjDm7zOoc_U8-84">
          <mxGeometry relative="1" as="geometry" />
        </mxCell>
        <mxCell id="0lsAQgyxsjDm7zOoc_U8-92" value="&amp;lt;&amp;lt;extends&amp;gt;&amp;gt;" style="edgeLabel;html=1;align=center;verticalAlign=middle;resizable=0;points=[];shadow=1;strokeColor=#E07A5F;fontFamily=Helvetica;fontSize=12;fontColor=default;fontStyle=0;labelBorderColor=none;labelBackgroundColor=none;fillColor=#F2CC8F;" vertex="1" connectable="0" parent="0lsAQgyxsjDm7zOoc_U8-86">
          <mxGeometry x="-0.4565" y="-3" relative="1" as="geometry">
            <mxPoint x="16" as="offset" />
          </mxGeometry>
        </mxCell>
        <mxCell id="0lsAQgyxsjDm7zOoc_U8-61" value="Approve&lt;div&gt;&lt;span style=&quot;background-color: initial;&quot;&gt;Rescheduling Request&lt;/span&gt;&lt;/div&gt;" style="ellipse;whiteSpace=wrap;html=1;strokeColor=#E07A5F;fillColor=#F2CC8F;textShadow=1;labelBorderColor=none;shadow=1;fontStyle=0" vertex="1" parent="QG28d_ijk8-KWKPGMiaz-0">
          <mxGeometry x="295" y="443.5" width="110" height="50" as="geometry" />
        </mxCell>
        <mxCell id="0lsAQgyxsjDm7zOoc_U8-54" value="Upload Files" style="ellipse;whiteSpace=wrap;html=1;strokeColor=#E07A5F;fillColor=#F2CC8F;textShadow=1;labelBorderColor=none;shadow=1;fontStyle=0" vertex="1" parent="QG28d_ijk8-KWKPGMiaz-0">
          <mxGeometry x="645" y="80" width="90" height="50" as="geometry" />
        </mxCell>
        <mxCell id="0lsAQgyxsjDm7zOoc_U8-59" value="View Assessment Clashes" style="ellipse;whiteSpace=wrap;html=1;strokeColor=#E07A5F;fillColor=#F2CC8F;textShadow=1;labelBorderColor=none;shadow=1;fontStyle=0" vertex="1" parent="QG28d_ijk8-KWKPGMiaz-0">
          <mxGeometry x="600" y="130" width="90" height="50" as="geometry" />
        </mxCell>
        <mxCell id="0lsAQgyxsjDm7zOoc_U8-90" value="Account Logout" style="ellipse;whiteSpace=wrap;html=1;strokeColor=#E07A5F;fillColor=#F2CC8F;textShadow=1;labelBorderColor=none;shadow=1;fontStyle=0" vertex="1" parent="QG28d_ijk8-KWKPGMiaz-0">
          <mxGeometry x="270" y="703" width="90" height="49.5" as="geometry" />
        </mxCell>
        <mxCell id="0lsAQgyxsjDm7zOoc_U8-95" value="Send Email" style="ellipse;whiteSpace=wrap;html=1;strokeColor=#E07A5F;fillColor=#F2CC8F;textShadow=1;labelBorderColor=none;shadow=1;fontStyle=0" vertex="1" parent="QG28d_ijk8-KWKPGMiaz-0">
          <mxGeometry x="10" y="630" width="90" height="50" as="geometry" />
        </mxCell>
        <mxCell id="0lsAQgyxsjDm7zOoc_U8-143" style="edgeStyle=none;shape=connector;rounded=1;orthogonalLoop=1;jettySize=auto;html=1;dashed=1;strokeColor=#E07A5F;align=center;verticalAlign=middle;fontFamily=Helvetica;fontSize=12;fontColor=default;fontStyle=0;labelBorderColor=none;labelBackgroundColor=none;startSize=24;endArrow=open;endFill=0;endSize=24;" edge="1" parent="QG28d_ijk8-KWKPGMiaz-0" source="0lsAQgyxsjDm7zOoc_U8-96" target="0lsAQgyxsjDm7zOoc_U8-97">
          <mxGeometry relative="1" as="geometry" />
        </mxCell>
        <mxCell id="0lsAQgyxsjDm7zOoc_U8-144" value="&amp;lt;&amp;lt;extends&amp;gt;&amp;gt;" style="edgeLabel;html=1;align=center;verticalAlign=middle;resizable=0;points=[];shadow=1;strokeColor=#E07A5F;fontFamily=Helvetica;fontSize=12;fontColor=default;fontStyle=0;labelBorderColor=none;labelBackgroundColor=none;fillColor=#F2CC8F;" vertex="1" connectable="0" parent="0lsAQgyxsjDm7zOoc_U8-143">
          <mxGeometry x="-0.4083" y="-1" relative="1" as="geometry">
            <mxPoint as="offset" />
          </mxGeometry>
        </mxCell>
        <mxCell id="0lsAQgyxsjDm7zOoc_U8-96" value="View Assessments" style="ellipse;whiteSpace=wrap;html=1;strokeColor=#E07A5F;fillColor=#F2CC8F;textShadow=1;labelBorderColor=none;shadow=1;fontStyle=0" vertex="1" parent="QG28d_ijk8-KWKPGMiaz-0">
          <mxGeometry x="20" y="130" width="90" height="50" as="geometry" />
        </mxCell>
        <mxCell id="0lsAQgyxsjDm7zOoc_U8-97" value="Manage Assessments" style="ellipse;whiteSpace=wrap;html=1;strokeColor=#E07A5F;fillColor=#F2CC8F;textShadow=1;labelBorderColor=none;shadow=1;fontStyle=0" vertex="1" parent="QG28d_ijk8-KWKPGMiaz-0">
          <mxGeometry x="200" y="240" width="130" height="60" as="geometry" />
        </mxCell>
        <mxCell id="0lsAQgyxsjDm7zOoc_U8-139" style="edgeStyle=none;shape=connector;rounded=1;orthogonalLoop=1;jettySize=auto;html=1;dashed=1;strokeColor=#E07A5F;align=center;verticalAlign=middle;fontFamily=Helvetica;fontSize=12;fontColor=default;fontStyle=0;labelBorderColor=none;labelBackgroundColor=none;startSize=24;endArrow=open;endFill=0;endSize=24;" edge="1" parent="QG28d_ijk8-KWKPGMiaz-0" source="0lsAQgyxsjDm7zOoc_U8-99" target="0lsAQgyxsjDm7zOoc_U8-97">
          <mxGeometry relative="1" as="geometry" />
        </mxCell>
        <mxCell id="0lsAQgyxsjDm7zOoc_U8-146" value="&amp;lt;&amp;lt;extends&amp;gt;&amp;gt;" style="edgeLabel;html=1;align=center;verticalAlign=middle;resizable=0;points=[];shadow=1;strokeColor=#E07A5F;fontFamily=Helvetica;fontSize=12;fontColor=default;fontStyle=0;labelBorderColor=none;labelBackgroundColor=none;fillColor=#F2CC8F;" vertex="1" connectable="0" parent="0lsAQgyxsjDm7zOoc_U8-139">
          <mxGeometry x="-0.3584" y="4" relative="1" as="geometry">
            <mxPoint as="offset" />
          </mxGeometry>
        </mxCell>
        <mxCell id="0lsAQgyxsjDm7zOoc_U8-99" value="Update Assessment" style="ellipse;whiteSpace=wrap;html=1;strokeColor=#E07A5F;fillColor=#F2CC8F;textShadow=1;labelBorderColor=none;shadow=1;fontStyle=0" vertex="1" parent="QG28d_ijk8-KWKPGMiaz-0">
          <mxGeometry x="110" y="100" width="90" height="50" as="geometry" />
        </mxCell>
        <mxCell id="0lsAQgyxsjDm7zOoc_U8-140" style="edgeStyle=none;shape=connector;rounded=1;orthogonalLoop=1;jettySize=auto;html=1;dashed=1;strokeColor=#E07A5F;align=center;verticalAlign=middle;fontFamily=Helvetica;fontSize=12;fontColor=default;fontStyle=0;labelBorderColor=none;labelBackgroundColor=none;startSize=24;endArrow=open;endFill=0;endSize=24;" edge="1" parent="QG28d_ijk8-KWKPGMiaz-0" source="0lsAQgyxsjDm7zOoc_U8-138" target="0lsAQgyxsjDm7zOoc_U8-97">
          <mxGeometry relative="1" as="geometry" />
        </mxCell>
        <mxCell id="0lsAQgyxsjDm7zOoc_U8-147" value="&amp;lt;&amp;lt;extends&amp;gt;&amp;gt;" style="edgeLabel;html=1;align=center;verticalAlign=middle;resizable=0;points=[];shadow=1;strokeColor=#E07A5F;fontFamily=Helvetica;fontSize=12;fontColor=default;fontStyle=0;labelBorderColor=none;labelBackgroundColor=none;fillColor=#F2CC8F;" vertex="1" connectable="0" parent="0lsAQgyxsjDm7zOoc_U8-140">
          <mxGeometry x="0.0937" y="4" relative="1" as="geometry">
            <mxPoint x="14" y="1" as="offset" />
          </mxGeometry>
        </mxCell>
        <mxCell id="0lsAQgyxsjDm7zOoc_U8-138" value="Delete Assessment" style="ellipse;whiteSpace=wrap;html=1;strokeColor=#E07A5F;fillColor=#F2CC8F;textShadow=1;labelBorderColor=none;shadow=1;fontStyle=0" vertex="1" parent="QG28d_ijk8-KWKPGMiaz-0">
          <mxGeometry x="410" y="220" width="90" height="50" as="geometry" />
        </mxCell>
        <mxCell id="0lsAQgyxsjDm7zOoc_U8-153" value="Update Account Password" style="ellipse;whiteSpace=wrap;html=1;strokeColor=#E07A5F;fillColor=#F2CC8F;textShadow=1;labelBorderColor=none;shadow=1;fontStyle=0" vertex="1" parent="QG28d_ijk8-KWKPGMiaz-0">
          <mxGeometry x="60" y="560" width="110" height="50" as="geometry" />
        </mxCell>
        <mxCell id="0lsAQgyxsjDm7zOoc_U8-27" style="edgeStyle=none;shape=connector;rounded=1;orthogonalLoop=1;jettySize=auto;html=1;strokeColor=#E07A5F;align=center;verticalAlign=middle;fontFamily=Helvetica;fontSize=12;fontColor=default;fontStyle=0;labelBorderColor=none;labelBackgroundColor=none;startSize=24;endArrow=none;endFill=0;endSize=24;" edge="1" parent="wY9a074QrQh7qfgXFha0-1" source="0lsAQgyxsjDm7zOoc_U8-2" target="0lsAQgyxsjDm7zOoc_U8-12">
          <mxGeometry relative="1" as="geometry" />
        </mxCell>
        <mxCell id="0lsAQgyxsjDm7zOoc_U8-40" style="edgeStyle=none;shape=connector;rounded=1;orthogonalLoop=1;jettySize=auto;html=1;strokeColor=#E07A5F;align=center;verticalAlign=middle;fontFamily=Helvetica;fontSize=12;fontColor=default;fontStyle=0;labelBorderColor=none;labelBackgroundColor=none;startSize=24;endArrow=none;endFill=0;endSize=24;" edge="1" parent="wY9a074QrQh7qfgXFha0-1" source="0lsAQgyxsjDm7zOoc_U8-49" target="0lsAQgyxsjDm7zOoc_U8-39">
          <mxGeometry relative="1" as="geometry" />
        </mxCell>
        <mxCell id="0lsAQgyxsjDm7zOoc_U8-98" style="edgeStyle=none;shape=connector;rounded=1;orthogonalLoop=1;jettySize=auto;html=1;strokeColor=#E07A5F;align=center;verticalAlign=middle;fontFamily=Helvetica;fontSize=12;fontColor=default;fontStyle=0;labelBorderColor=none;labelBackgroundColor=none;startSize=24;endArrow=none;endFill=0;endSize=24;" edge="1" parent="wY9a074QrQh7qfgXFha0-1" source="0lsAQgyxsjDm7zOoc_U8-2" target="0lsAQgyxsjDm7zOoc_U8-97">
          <mxGeometry relative="1" as="geometry" />
        </mxCell>
        <mxCell id="0lsAQgyxsjDm7zOoc_U8-148" style="edgeStyle=none;shape=connector;rounded=1;orthogonalLoop=1;jettySize=auto;html=1;strokeColor=#E07A5F;align=center;verticalAlign=middle;fontFamily=Helvetica;fontSize=12;fontColor=default;fontStyle=0;labelBorderColor=none;labelBackgroundColor=none;startSize=24;endArrow=none;endFill=0;endSize=24;" edge="1" parent="wY9a074QrQh7qfgXFha0-1" source="0lsAQgyxsjDm7zOoc_U8-2" target="0lsAQgyxsjDm7zOoc_U8-95">
          <mxGeometry relative="1" as="geometry" />
        </mxCell>
        <mxCell id="0lsAQgyxsjDm7zOoc_U8-2" value="Staff" style="shape=umlActor;verticalLabelPosition=bottom;verticalAlign=top;html=1;outlineConnect=0;strokeColor=#E07A5F;align=center;fontFamily=Courier New;fontSize=12;fontColor=default;fontStyle=0;labelBorderColor=none;labelBackgroundColor=none;fillColor=#F2CC8F;" vertex="1" parent="wY9a074QrQh7qfgXFha0-1">
          <mxGeometry x="100" y="500" width="30" height="60" as="geometry" />
        </mxCell>
        <mxCell id="0lsAQgyxsjDm7zOoc_U8-32" style="edgeStyle=none;shape=connector;rounded=1;orthogonalLoop=1;jettySize=auto;html=1;strokeColor=#E07A5F;align=center;verticalAlign=middle;fontFamily=Helvetica;fontSize=12;fontColor=default;fontStyle=0;labelBorderColor=none;labelBackgroundColor=none;startSize=24;endArrow=none;endFill=0;endSize=24;" edge="1" parent="wY9a074QrQh7qfgXFha0-1" source="0lsAQgyxsjDm7zOoc_U8-4" target="0lsAQgyxsjDm7zOoc_U8-67">
          <mxGeometry relative="1" as="geometry" />
        </mxCell>
        <mxCell id="0lsAQgyxsjDm7zOoc_U8-34" style="edgeStyle=none;shape=connector;rounded=1;orthogonalLoop=1;jettySize=auto;html=1;strokeColor=#E07A5F;align=center;verticalAlign=middle;fontFamily=Helvetica;fontSize=12;fontColor=default;fontStyle=0;labelBorderColor=none;labelBackgroundColor=none;startSize=24;endArrow=none;endFill=0;endSize=24;" edge="1" parent="wY9a074QrQh7qfgXFha0-1" source="0lsAQgyxsjDm7zOoc_U8-4" target="0lsAQgyxsjDm7zOoc_U8-19">
          <mxGeometry relative="1" as="geometry" />
        </mxCell>
        <mxCell id="0lsAQgyxsjDm7zOoc_U8-52" style="edgeStyle=none;shape=connector;rounded=1;orthogonalLoop=1;jettySize=auto;html=1;strokeColor=#E07A5F;align=center;verticalAlign=middle;fontFamily=Helvetica;fontSize=12;fontColor=default;fontStyle=1;labelBorderColor=none;labelBackgroundColor=none;startSize=24;endArrow=block;endFill=0;endSize=24;" edge="1" parent="wY9a074QrQh7qfgXFha0-1" source="0lsAQgyxsjDm7zOoc_U8-4" target="0lsAQgyxsjDm7zOoc_U8-49">
          <mxGeometry relative="1" as="geometry">
            <Array as="points">
              <mxPoint x="1080" y="830" />
            </Array>
          </mxGeometry>
        </mxCell>
        <mxCell id="0lsAQgyxsjDm7zOoc_U8-63" style="edgeStyle=none;shape=connector;rounded=1;orthogonalLoop=1;jettySize=auto;html=1;strokeColor=#E07A5F;align=center;verticalAlign=middle;fontFamily=Helvetica;fontSize=12;fontColor=default;fontStyle=0;labelBorderColor=none;labelBackgroundColor=none;startSize=24;endArrow=none;endFill=0;endSize=24;" edge="1" parent="wY9a074QrQh7qfgXFha0-1" source="0lsAQgyxsjDm7zOoc_U8-4" target="0lsAQgyxsjDm7zOoc_U8-59">
          <mxGeometry relative="1" as="geometry" />
        </mxCell>
        <mxCell id="0lsAQgyxsjDm7zOoc_U8-85" style="edgeStyle=none;shape=connector;rounded=1;orthogonalLoop=1;jettySize=auto;html=1;strokeColor=#E07A5F;align=center;verticalAlign=middle;fontFamily=Helvetica;fontSize=12;fontColor=default;fontStyle=0;labelBorderColor=none;labelBackgroundColor=none;startSize=24;endArrow=none;endFill=0;endSize=24;" edge="1" parent="wY9a074QrQh7qfgXFha0-1" source="0lsAQgyxsjDm7zOoc_U8-4" target="0lsAQgyxsjDm7zOoc_U8-84">
          <mxGeometry relative="1" as="geometry" />
        </mxCell>
        <mxCell id="0lsAQgyxsjDm7zOoc_U8-88" style="edgeStyle=none;shape=connector;rounded=1;orthogonalLoop=1;jettySize=auto;html=1;strokeColor=#E07A5F;align=center;verticalAlign=middle;fontFamily=Helvetica;fontSize=12;fontColor=default;fontStyle=0;labelBorderColor=none;labelBackgroundColor=none;startSize=24;endArrow=none;endFill=0;endSize=24;" edge="1" parent="wY9a074QrQh7qfgXFha0-1" source="0lsAQgyxsjDm7zOoc_U8-4" target="0lsAQgyxsjDm7zOoc_U8-54">
          <mxGeometry relative="1" as="geometry" />
        </mxCell>
        <mxCell id="0lsAQgyxsjDm7zOoc_U8-4" value="Admin" style="shape=umlActor;verticalLabelPosition=bottom;verticalAlign=top;html=1;outlineConnect=0;strokeColor=#E07A5F;align=center;fontFamily=Courier New;fontSize=12;fontColor=default;fontStyle=0;labelBorderColor=none;labelBackgroundColor=none;fillColor=#F2CC8F;" vertex="1" parent="wY9a074QrQh7qfgXFha0-1">
          <mxGeometry x="1110" y="334.5" width="30" height="60" as="geometry" />
        </mxCell>
        <mxCell id="0lsAQgyxsjDm7zOoc_U8-53" style="edgeStyle=none;shape=connector;rounded=1;orthogonalLoop=1;jettySize=auto;html=1;strokeColor=#E07A5F;align=center;verticalAlign=middle;fontFamily=Helvetica;fontSize=12;fontColor=default;fontStyle=0;labelBorderColor=none;labelBackgroundColor=none;startSize=24;endArrow=none;endFill=0;endSize=24;" edge="1" parent="wY9a074QrQh7qfgXFha0-1" source="0lsAQgyxsjDm7zOoc_U8-2" target="0lsAQgyxsjDm7zOoc_U8-0">
          <mxGeometry relative="1" as="geometry" />
        </mxCell>
        <mxCell id="0lsAQgyxsjDm7zOoc_U8-91" style="edgeStyle=none;shape=connector;rounded=1;orthogonalLoop=1;jettySize=auto;html=1;strokeColor=#E07A5F;align=center;verticalAlign=middle;fontFamily=Helvetica;fontSize=12;fontColor=default;fontStyle=0;labelBorderColor=none;labelBackgroundColor=none;startSize=24;endArrow=none;endFill=0;endSize=24;" edge="1" parent="wY9a074QrQh7qfgXFha0-1" source="0lsAQgyxsjDm7zOoc_U8-49" target="0lsAQgyxsjDm7zOoc_U8-90">
          <mxGeometry relative="1" as="geometry" />
        </mxCell>
        <mxCell id="0lsAQgyxsjDm7zOoc_U8-49" value="User&lt;div&gt;&amp;lt;&amp;lt;abstract&amp;gt;&amp;gt;&lt;/div&gt;" style="shape=umlActor;verticalLabelPosition=bottom;verticalAlign=top;html=1;outlineConnect=0;strokeColor=#E07A5F;align=center;fontFamily=Courier New;fontSize=12;fontColor=default;fontStyle=0;labelBorderColor=none;labelBackgroundColor=none;fillColor=#F2CC8F;" vertex="1" parent="wY9a074QrQh7qfgXFha0-1">
          <mxGeometry x="420" y="897.21" width="30" height="60" as="geometry" />
        </mxCell>
        <mxCell id="0lsAQgyxsjDm7zOoc_U8-51" style="edgeStyle=none;shape=connector;rounded=1;orthogonalLoop=1;jettySize=auto;html=1;strokeColor=#E07A5F;align=center;verticalAlign=middle;fontFamily=Helvetica;fontSize=12;fontColor=default;fontStyle=1;labelBorderColor=none;labelBackgroundColor=none;startSize=24;endArrow=block;endFill=0;endSize=24;" edge="1" parent="wY9a074QrQh7qfgXFha0-1" source="0lsAQgyxsjDm7zOoc_U8-2" target="0lsAQgyxsjDm7zOoc_U8-49">
          <mxGeometry relative="1" as="geometry">
            <Array as="points">
              <mxPoint x="140" y="880" />
            </Array>
          </mxGeometry>
        </mxCell>
        <mxCell id="0lsAQgyxsjDm7zOoc_U8-151" style="edgeStyle=none;shape=connector;rounded=1;orthogonalLoop=1;jettySize=auto;html=1;strokeColor=#E07A5F;align=center;verticalAlign=middle;fontFamily=Helvetica;fontSize=12;fontColor=default;fontStyle=0;labelBorderColor=none;labelBackgroundColor=none;startSize=24;endArrow=none;endFill=0;endSize=24;" edge="1" parent="wY9a074QrQh7qfgXFha0-1" source="0lsAQgyxsjDm7zOoc_U8-15" target="0lsAQgyxsjDm7zOoc_U8-2">
          <mxGeometry relative="1" as="geometry" />
        </mxCell>
        <mxCell id="0lsAQgyxsjDm7zOoc_U8-152" style="edgeStyle=none;shape=connector;rounded=1;orthogonalLoop=1;jettySize=auto;html=1;strokeColor=#E07A5F;align=center;verticalAlign=middle;fontFamily=Helvetica;fontSize=12;fontColor=default;fontStyle=0;labelBorderColor=none;labelBackgroundColor=none;startSize=24;endArrow=none;endFill=0;endSize=24;" edge="1" parent="wY9a074QrQh7qfgXFha0-1" source="0lsAQgyxsjDm7zOoc_U8-15" target="0lsAQgyxsjDm7zOoc_U8-4">
          <mxGeometry relative="1" as="geometry" />
        </mxCell>
        <mxCell id="0lsAQgyxsjDm7zOoc_U8-154" style="edgeStyle=none;shape=connector;rounded=1;orthogonalLoop=1;jettySize=auto;html=1;strokeColor=#E07A5F;align=center;verticalAlign=middle;fontFamily=Helvetica;fontSize=12;fontColor=default;fontStyle=0;labelBorderColor=none;labelBackgroundColor=none;startSize=24;endArrow=none;endFill=0;endSize=24;" edge="1" parent="wY9a074QrQh7qfgXFha0-1" source="0lsAQgyxsjDm7zOoc_U8-153" target="0lsAQgyxsjDm7zOoc_U8-2">
          <mxGeometry relative="1" as="geometry" />
        </mxCell>
      </root>
    </mxGraphModel>
  </diagram>
</mxfile>
